<svg xmlns="http://www.w3.org/2000/svg" xmlns:xlink="http://www.w3.org/1999/xlink" viewBox="0,0,256,256" width="480px" height="480px" fill-rule="nonzero"><g fill="none" fill-rule="nonzero" stroke="none" stroke-width="1" stroke-linecap="butt" stroke-linejoin="miter" stroke-miterlimit="10" stroke-dasharray="" stroke-dashoffset="0" font-family="none" font-weight="none" font-size="none" text-anchor="none" style="mix-blend-mode: normal"><g transform="scale(5.33333,5.33333)"><path d="M32,42.633v-35.266c6.322,4.559 11.059,10.381 14,17.633c-3.162,7.322 -7.802,13.225 -14,17.633z" fill="#1abc9c"></path><path d="M23.741,34.439c-5.727,0 -10.37,-4.226 -10.37,-9.439c0,-5.213 4.643,-9.439 10.37,-9.439c2.828,0 5.388,1.033 7.259,2.704v-11.321c-2.524,-1.189 -5.328,-1.871 -8.296,-1.871c-10.882,0 -19.704,8.922 -19.704,19.927c0,11.005 8.822,19.927 19.704,19.927c2.968,0 5.772,-0.683 8.296,-1.871v-11.32c-1.871,1.67 -4.431,2.703 -7.259,2.703z" fill="#b0bec5"></path><path d="M31,30.651c-1.65,2.041 -4.171,3.349 -7,3.349c-4.971,0 -9,-4.029 -9,-9c0,-4.971 4.029,-9 9,-9c2.829,0 5.35,1.308 7,3.349v-2.834c-1.902,-1.571 -4.341,-2.515 -7,-2.515c-6.075,0 -11,4.925 -11,11c0,6.075 4.925,11 11,11c2.659,0 5.098,-0.944 7,-2.515z" fill="#90a4ae"></path><path d="M33.011,8.247c-0.342,-0.276 -0.671,-0.563 -1.023,-0.83v35.292c0.352,-0.264 0.681,-0.55 1.023,-0.825z" fill="#1abc9c"></path></g></g></svg>